<?xml version="1.0" encoding="utf-8"?>
<!-- Generator: Adobe Illustrator 18.1.1, SVG Export Plug-In . SVG Version: 6.00 Build 0)  -->
<svg version="1.1" xmlns="http://www.w3.org/2000/svg" xmlns:xlink="http://www.w3.org/1999/xlink" x="0px" y="0px"
	 viewBox="0 0 1890.033 718.592" enable-background="new 0 0 1890.033 718.592" xml:space="preserve">
<g id="Layer_1">
	<path fill="#FCB033" stroke="#F39E22" stroke-miterlimit="10" d="M873.008,628.338v26.012c0,0-33.487,20.174-27.855,25.807
		c5.632,5.632,13.608,0,13.608,0s14.247-13.108,14.247-6.144c0,0-2.321,22.125,3.209,22.137c7.783,0.017,7.715-11.077,8.124-15.379
		c0.41-4.301,2.526-8.397,4.779-6.144c2.253,2.253,9.422,10.855,13.927,12.289s5.871,3.482,9.353-0.956
		c1.963-2.502,0.839-6.349-1.98-9.626c-4.062-4.722-18.775-9.285-18.775-19.526s0-28.469,0-28.469H873.008z"/>
	<path fill="#FCB033" stroke="#F39E22" stroke-miterlimit="10" d="M1021.089,628.338v26.012c0,0,33.487,20.174,27.855,25.807
		c-5.632,5.632-13.608,0-13.608,0s-14.247-13.108-14.247-6.144c0,0,2.321,22.125-3.209,22.137
		c-7.783,0.017-7.715-11.077-8.124-15.379c-0.41-4.301-2.526-8.397-4.779-6.144c-2.253,2.253-9.421,10.855-13.927,12.289
		s-5.871,3.482-9.353-0.956c-1.963-2.502-0.839-6.349,1.98-9.626c4.062-4.722,18.775-9.285,18.775-19.526s0-28.469,0-28.469
		H1021.089z"/>
	<path fill="#66CDEE" d="M1208.7,358.529C1208.7,518.249,1084.429,648,943.26,648S682.735,520.433,682.735,360.714
		c0-88.454,39.712-206.932,95.012-259.98c44.554-42.74,105.255-49.7,168.244-49.7c63.14,0,125.291,8.976,169.889,51.901
		C1170.994,155.981,1208.7,270.246,1208.7,358.529z"/>
	<path fill="#66CDEE" d="M686.012,323.028c0,0,1.61-146.368,4.369-199.899c1.73-33.557,3.823-69.091,16.931-83.018
		c5.811-6.174,13.703-6.421,46.425,24.578c36.32,34.409,52.433,46.425,52.433,46.425l-78.649,211.915H686.012z"/>
	<path fill="#66CDEE" d="M1205.423,330.933c0,0-1.61-146.368-4.369-199.899c-1.73-33.557-3.823-69.091-16.931-83.018
		c-5.811-6.174-13.703-6.421-46.425,24.578c-36.321,34.409-52.433,46.425-52.433,46.425l78.649,211.915H1205.423z"/>
	<circle fill="#86D5F2" cx="831.835" cy="242.129" r="120.704"/>
	<circle fill="#86D5F2" cx="1060.692" cy="242.129" r="120.704"/>
	<circle fill="#BAE5F1" cx="831.709" cy="253.949" r="120.704"/>
	<circle fill="#BAE5F1" cx="1060.566" cy="253.949" r="120.704"/>
	<path fill="#FCB033" stroke="#F39E22" stroke-miterlimit="10" d="M920.867,288.073l22.393,55.163l28.401-55.163
		c0,0-2.731-12.016-25.943-12.016C922.505,276.057,920.867,288.073,920.867,288.073z"/>
	<g>
		<g>
			<path d="M1025.408,265.636c2.914,17.063,13.088,35.185,28.296,43.952c12.385,7.14,28.329,8.01,41.496,2.539
				c11.297-4.694,19.894-13.957,25.44-24.71c3.407-6.607,6.253-13.983,7.414-21.371c1.188-7.555-10.373-10.809-11.571-3.19
				c-2.122,13.494-9.255,28.434-21.125,35.789c-9.864,6.112-23.404,6.838-33.802,1.554c-8.994-4.57-15.118-12.708-19.364-21.661
				c-2.385-5.029-4.269-10.575-5.211-16.092C1035.682,254.849,1024.116,258.07,1025.408,265.636L1025.408,265.636z"/>
		</g>
	</g>
	<g>
		<g>
			<path d="M766.538,265.636c2.914,17.063,13.088,35.185,28.296,43.952c12.385,7.14,28.329,8.01,41.496,2.539
				c11.297-4.694,19.894-13.957,25.44-24.71c3.407-6.607,6.253-13.983,7.414-21.371c1.188-7.555-10.373-10.809-11.571-3.19
				c-2.122,13.494-9.255,28.434-21.125,35.789c-9.864,6.112-23.404,6.838-33.802,1.554c-8.993-4.57-15.118-12.708-19.364-21.661
				c-2.385-5.029-4.269-10.575-5.211-16.092C776.812,254.849,765.246,258.07,766.538,265.636L766.538,265.636z"/>
		</g>
	</g>
	<ellipse fill="#86D5F2" cx="942.046" cy="542.298" rx="153.202" ry="98.721"/>
	<ellipse fill="#BAE5F1" cx="942.046" cy="525.094" rx="153.202" ry="98.721"/>
	<g>
		<g>
			<path fill="#4E9FD7" d="M873.034,505.449c-1.166,20.063-44.628,20.065-45.794,0c-0.186-3.198-5.187-3.22-5,0
				c1.559,26.821,54.235,26.821,55.794,0C878.221,502.235,873.221,502.246,873.034,505.449L873.034,505.449z"/>
		</g>
	</g>
	<g>
		<g>
			<path fill="#4E9FD7" d="M965.338,507.86c-1.166,20.063-44.628,20.065-45.794,0c-0.186-3.198-5.187-3.22-5,0
				c1.559,26.821,54.235,26.821,55.794,0C970.524,504.645,965.524,504.656,965.338,507.86L965.338,507.86z"/>
		</g>
	</g>
	<g>
		<g>
			<path fill="#4E9FD7" d="M1059.463,507.86c-1.166,20.063-44.628,20.065-45.794,0c-0.186-3.198-5.187-3.22-5,0
				c1.559,26.821,54.235,26.821,55.794,0C1064.65,504.645,1059.649,504.656,1059.463,507.86L1059.463,507.86z"/>
		</g>
	</g>
	<g>
		<g>
			<path fill="#4E9FD7" d="M924.198,568.742c-0.779,13.407-19.308,15.414-30.032,14.396c-5.351-0.508-14.137-1.767-16.202-7.812
				c-0.417-1.221-0.478-2.534-0.273-3.799c0.076-0.468,0.841-2.571,0.371-1.524c1.307-2.912-3-5.457-4.317-2.524
				c-11.287,25.145,53.708,31.274,55.453,1.262C929.385,565.528,924.384,565.539,924.198,568.742L924.198,568.742z"/>
		</g>
	</g>
	<g>
		<g>
			<path fill="#4E9FD7" d="M1014.766,568.742c-0.779,13.407-19.308,15.414-30.032,14.396c-5.351-0.508-14.137-1.767-16.202-7.812
				c-0.417-1.221-0.478-2.534-0.273-3.799c0.076-0.468,0.841-2.571,0.371-1.524c1.307-2.912-3.001-5.457-4.317-2.524
				c-11.287,25.145,53.708,31.274,55.453,1.262C1019.953,565.528,1014.952,565.539,1014.766,568.742L1014.766,568.742z"/>
		</g>
	</g>
	<path fill="#005694" d="M649.35,574.677c0,0-13.04-155.523,21.369-209.594c31.344-49.255,61.082-1.172,61.082-1.172
		s1.919,2.695,2.531,3.409c6.405,7.469,37.991,51.561,55.453,98.259c18.841,50.387,27.459,80.017,15.02,88.207
		c-2.668,1.757-17,15.771-32.481-10.104c-3.575-5.975-13.261-39.734-21.863-31.132c-6.106,6.106,9.046,56.668-4.754,66.677
		c-5.718,4.147-9.064,4.411-18.328,1.595c-10.034-3.051-16.789-33.317-21.704-37.14c-4.916-3.823-8.739,6.008-8.739,6.008
		s-6.554,43.694-27.855,43.694C647.78,593.383,649.35,574.677,649.35,574.677z"/>
	<path fill="#005694" d="M1238.017,572.204c0,0,13.04-155.523-21.369-209.594c-31.344-49.255-61.082-1.172-61.082-1.172
		s-1.919,2.695-2.531,3.409c-6.406,7.469-37.991,51.561-55.453,98.259c-18.841,50.387-27.459,80.017-15.02,88.207
		c2.668,1.757,17,15.771,32.481-10.104c3.575-5.975,13.261-39.734,21.863-31.132c6.106,6.106-9.046,56.668,4.754,66.677
		c5.718,4.147,9.064,4.411,18.328,1.595c10.034-3.051,16.789-33.317,21.704-37.14c4.916-3.823,8.739,6.008,8.739,6.008
		s6.554,43.694,27.855,43.694S1238.017,572.204,1238.017,572.204z"/>
	<path fill="#FCB033" stroke="#F39E22" stroke-miterlimit="10" d="M243.276,620.175v26.011c0,0-33.487,20.174-27.855,25.807
		c5.632,5.632,13.608,0,13.608,0s14.247-13.108,14.247-6.144c0,0-2.321,22.125,3.209,22.137c7.783,0.017,7.715-11.077,8.124-15.378
		c0.41-4.301,2.526-8.397,4.779-6.144c2.253,2.253,9.421,10.855,13.927,12.289c4.506,1.434,5.871,3.482,9.353-0.956
		c1.963-2.501,0.839-6.349-1.98-9.626c-4.062-4.722-18.775-9.285-18.775-19.526c0-10.241,0-28.469,0-28.469H243.276z"/>
	<path fill="#FCB033" stroke="#F39E22" stroke-miterlimit="10" d="M391.358,620.175v26.011c0,0,33.487,20.174,27.855,25.807
		c-5.632,5.632-13.608,0-13.608,0s-14.247-13.108-14.247-6.144c0,0,2.321,22.125-3.209,22.137
		c-7.783,0.017-7.715-11.077-8.124-15.378c-0.41-4.301-2.526-8.397-4.779-6.144c-2.253,2.253-9.421,10.855-13.927,12.289
		c-4.506,1.434-5.871,3.482-9.353-0.956c-1.963-2.501-0.839-6.349,1.98-9.626c4.062-4.722,18.775-9.285,18.775-19.526
		c0-10.241,0-28.469,0-28.469H391.358z"/>
	<path fill="#F6ACCC" d="M578.968,350.365c0,159.72-124.271,289.472-265.44,289.472S53.003,512.27,53.003,352.55
		c0-88.454,39.712-206.932,95.012-259.98c44.554-42.74,105.255-49.7,168.244-49.7c63.14,0,125.291,8.976,169.889,51.901
		C541.262,147.817,578.968,262.083,578.968,350.365z"/>
	<path fill="#F6ACCC" d="M56.28,314.864c0,0,1.61-146.368,4.369-199.899c1.73-33.557,3.823-69.091,16.931-83.018
		c5.811-6.174,13.703-6.421,46.425,24.578c36.32,34.409,52.433,46.425,52.433,46.425L97.79,314.864H56.28z"/>
	<path fill="#F6ACCC" d="M575.691,322.769c0,0-1.61-146.368-4.369-199.899c-1.73-33.557-3.823-69.091-16.931-83.018
		c-5.811-6.174-13.703-6.421-46.425,24.578c-36.32,34.409-52.433,46.425-52.433,46.425l78.649,211.915H575.691z"/>
	<circle fill="#F9CBDF" cx="202.103" cy="233.965" r="120.704"/>
	<circle fill="#F9CBDF" cx="430.96" cy="233.965" r="120.704"/>
	<circle fill="#FCE6F0" cx="201.977" cy="245.786" r="120.704"/>
	<circle fill="#FCE6F0" cx="430.834" cy="245.786" r="120.704"/>
	<path fill="#FCB033" stroke="#F39E22" stroke-miterlimit="10" d="M291.135,279.909l22.393,55.163l28.401-55.163
		c0,0-2.731-12.016-25.943-12.016C292.773,267.893,291.135,279.909,291.135,279.909z"/>
	<g>
		<g>
			<path d="M395.676,257.473c2.914,17.063,13.088,35.185,28.296,43.952c12.385,7.14,28.329,8.01,41.496,2.539
				c11.297-4.694,19.894-13.957,25.44-24.71c3.407-6.607,6.253-13.983,7.415-21.371c1.188-7.555-10.373-10.809-11.571-3.19
				c-2.122,13.494-9.255,28.434-21.125,35.789c-9.864,6.112-23.404,6.838-33.802,1.554c-8.994-4.57-15.118-12.708-19.364-21.661
				c-2.385-5.029-4.269-10.575-5.211-16.092C405.95,246.686,394.384,249.907,395.676,257.473L395.676,257.473z"/>
		</g>
	</g>
	<g>
		<g>
			<path d="M136.806,257.473c2.914,17.063,13.088,35.185,28.296,43.952c12.385,7.14,28.329,8.01,41.496,2.539
				c11.297-4.694,19.894-13.957,25.44-24.71c3.407-6.607,6.253-13.983,7.415-21.371c1.188-7.555-10.373-10.809-11.571-3.19
				c-2.122,13.494-9.255,28.434-21.125,35.789c-9.864,6.112-23.404,6.838-33.802,1.554c-8.993-4.57-15.118-12.708-19.364-21.661
				c-2.385-5.029-4.269-10.575-5.211-16.092C147.08,246.686,135.514,249.907,136.806,257.473L136.806,257.473z"/>
		</g>
	</g>
	<ellipse fill="#F9CBDF" cx="312.314" cy="534.135" rx="153.202" ry="98.721"/>
	<ellipse fill="#FCE6F0" cx="312.314" cy="516.93" rx="153.202" ry="98.721"/>
	<g>
		<g>
			<path fill="#EF72A7" d="M243.302,497.286c-1.166,20.063-44.628,20.065-45.794,0c-0.186-3.198-5.187-3.22-5,0
				c1.559,26.821,54.235,26.821,55.794,0C248.489,494.071,243.489,494.082,243.302,497.286L243.302,497.286z"/>
		</g>
	</g>
	<g>
		<g>
			<path fill="#EF72A7" d="M335.606,499.696c-1.166,20.063-44.628,20.065-45.794,0c-0.186-3.198-5.187-3.22-5,0
				c1.559,26.821,54.235,26.821,55.794,0C340.793,496.482,335.792,496.492,335.606,499.696L335.606,499.696z"/>
		</g>
	</g>
	<g>
		<g>
			<path fill="#EF72A7" d="M429.731,499.696c-1.166,20.063-44.628,20.065-45.794,0c-0.186-3.198-5.187-3.22-5,0
				c1.559,26.821,54.235,26.821,55.794,0C434.918,496.482,429.917,496.492,429.731,499.696L429.731,499.696z"/>
		</g>
	</g>
	<g>
		<g>
			<path fill="#EF72A7" d="M294.466,560.579c-0.779,13.407-19.308,15.414-30.032,14.396c-5.351-0.508-14.137-1.767-16.202-7.812
				c-0.417-1.221-0.478-2.534-0.273-3.799c0.076-0.468,0.841-2.571,0.371-1.524c1.307-2.912-3.001-5.457-4.317-2.524
				c-11.287,25.145,53.708,31.274,55.453,1.262C299.653,557.364,294.652,557.375,294.466,560.579L294.466,560.579z"/>
		</g>
	</g>
	<g>
		<g>
			<path fill="#EF72A7" d="M385.034,560.579c-0.779,13.407-19.308,15.414-30.032,14.396c-5.351-0.508-14.137-1.767-16.202-7.812
				c-0.417-1.221-0.478-2.534-0.273-3.799c0.076-0.468,0.841-2.571,0.371-1.524c1.307-2.912-3.001-5.457-4.317-2.524
				c-11.287,25.145,53.708,31.274,55.453,1.262C390.221,557.364,385.221,557.375,385.034,560.579L385.034,560.579z"/>
		</g>
	</g>
	<path fill="#A41C48" d="M19.619,566.513c0,0-13.04-155.523,21.369-209.594c31.344-49.255,61.082-1.172,61.082-1.172
		s1.919,2.695,2.531,3.409c6.405,7.469,37.991,51.561,55.453,98.259c18.841,50.387,27.459,80.017,15.02,88.207
		c-2.668,1.757-17,15.771-32.481-10.104c-3.575-5.975-13.261-39.734-21.863-31.132c-6.106,6.106,9.046,56.668-4.754,66.677
		c-5.718,4.147-9.064,4.411-18.328,1.595c-10.034-3.051-16.789-33.317-21.704-37.14c-4.916-3.823-8.739,6.008-8.739,6.008
		S60.65,585.22,39.349,585.22S19.619,566.513,19.619,566.513z"/>
	<path fill="#A41C48" d="M608.286,564.041c0,0,13.04-155.523-21.369-209.594c-31.344-49.255-61.082-1.172-61.082-1.172
		s-1.919,2.695-2.531,3.409c-6.405,7.469-37.991,51.561-55.453,98.259c-18.841,50.387-27.459,80.017-15.02,88.207
		c2.668,1.757,17,15.771,32.481-10.104c3.575-5.975,13.261-39.734,21.863-31.132c6.106,6.106-9.046,56.668,4.754,66.677
		c5.718,4.147,9.064,4.411,18.328,1.595c10.034-3.051,16.789-33.317,21.704-37.14c4.916-3.823,8.739,6.008,8.739,6.008
		s6.554,43.694,27.855,43.694S608.286,564.041,608.286,564.041z"/>
</g>
<g id="Layer_2">
	<path fill="#FCB033" stroke="#F39E22" stroke-miterlimit="10" d="M1503.88,627.856v25.964c0,0-33.426,20.137-27.803,25.759
		c5.622,5.622,13.583,0,13.583,0s14.22-13.084,14.22-6.133c0,0-2.317,22.084,3.203,22.097c7.769,0.017,7.7-11.057,8.109-15.35
		c0.409-4.293,2.521-8.382,4.77-6.133c2.249,2.249,9.404,10.835,13.902,12.266c4.498,1.431,5.86,3.475,9.336-0.954
		c1.959-2.497,0.838-6.338-1.976-9.609c-4.055-4.714-18.74-9.268-18.74-19.49c0-10.222,0-28.417,0-28.417H1503.88z"/>
	<path fill="#FCB033" stroke="#F39E22" stroke-miterlimit="10" d="M1651.689,627.856v25.964c0,0,33.426,20.137,27.803,25.759
		c-5.622,5.622-13.583,0-13.583,0s-14.22-13.084-14.22-6.133c0,0,2.317,22.084-3.203,22.097c-7.769,0.017-7.7-11.057-8.109-15.35
		c-0.409-4.293-2.521-8.382-4.77-6.133c-2.249,2.249-9.404,10.835-13.902,12.266c-4.498,1.431-5.86,3.475-9.336-0.954
		c-1.959-2.497-0.838-6.338,1.976-9.609c4.055-4.714,18.74-9.268,18.74-19.49c0-10.222,0-28.417,0-28.417H1651.689z"/>
	<path fill="#C8B093" d="M1838.954,358.544c0,159.426-124.042,288.939-264.951,288.939s-260.045-127.332-260.045-286.758
		c0-88.291,39.638-206.55,94.837-259.501c44.472-42.661,105.061-49.609,167.934-49.609c63.024,0,125.06,8.96,169.576,51.805
		C1801.317,156.368,1838.954,270.423,1838.954,358.544z"/>
	<path fill="#C8B093" d="M1317.229,323.108c0,0,1.607-146.098,4.361-199.531c1.726-33.495,3.816-68.964,16.9-82.865
		c5.8-6.163,13.678-6.409,46.339,24.533c36.254,34.346,52.336,46.339,52.336,46.339l-78.504,211.525H1317.229z"/>
	<path fill="#C8B093" d="M1835.683,325.237c0,0-1.607-146.098-4.361-199.531c-1.727-33.495-3.816-68.964-16.9-82.865
		c-5.8-6.163-13.678-6.409-46.339,24.533c-36.254,34.346-52.336,46.339-52.336,46.339l78.504,211.525H1835.683z"/>
	<circle fill="#726861" cx="1462.783" cy="242.358" r="120.482"/>
	<circle fill="#726861" cx="1691.218" cy="242.358" r="120.482"/>
	<circle fill="#FDF3E8" cx="1462.657" cy="254.157" r="120.482"/>
	<circle fill="#FDF3E8" cx="1691.092" cy="254.157" r="120.482"/>
	<path fill="#FCB033" stroke="#F39E22" stroke-miterlimit="10" d="M1551.651,288.217l22.352,55.062l28.349-55.062
		c0,0-2.726-11.994-25.895-11.994C1553.286,276.223,1551.651,288.217,1551.651,288.217z"/>
	<g>
		<g>
			<path fill="#544A3F" d="M1655.989,265.825c2.909,17.034,13.067,35.125,28.249,43.877c12.365,7.129,28.284,7.997,41.429,2.535
				c11.278-4.687,19.861-13.933,25.398-24.669c3.401-6.596,6.242-13.959,7.402-21.334c1.188-7.555-10.373-10.809-11.571-3.19
				c-2.118,13.468-9.236,28.374-21.081,35.716c-9.841,6.1-23.354,6.823-33.729,1.552c-8.975-4.561-15.087-12.682-19.325-21.617
				c-2.377-5.012-4.26-10.553-5.201-16.059C1666.262,255.038,1654.696,258.259,1655.989,265.825L1655.989,265.825z"/>
		</g>
	</g>
	<g>
		<g>
			<path fill="#544A3F" d="M1397.596,265.825c2.909,17.034,13.067,35.125,28.249,43.877c12.365,7.129,28.284,7.997,41.429,2.535
				c11.278-4.687,19.861-13.933,25.398-24.669c3.401-6.596,6.242-13.959,7.402-21.334c1.188-7.555-10.373-10.809-11.571-3.19
				c-2.118,13.468-9.236,28.374-21.081,35.716c-9.842,6.1-23.354,6.823-33.729,1.552c-8.975-4.561-15.087-12.682-19.325-21.617
				c-2.377-5.012-4.26-10.553-5.201-16.059C1407.869,255.038,1396.303,258.259,1397.596,265.825L1397.596,265.825z"/>
		</g>
	</g>
	<ellipse fill="#726861" cx="1572.791" cy="541.974" rx="152.919" ry="98.539"/>
	<ellipse fill="#FDF3E8" cx="1572.791" cy="524.802" rx="152.919" ry="98.539"/>
	<g>
		<g>
			<path fill="#39332C" d="M1503.902,505.193c-1.169,20.038-44.531,20.037-45.701,0c-0.187-3.198-5.188-3.22-5,0
				c1.563,26.779,54.138,26.779,55.701,0C1509.089,501.979,1504.089,501.99,1503.902,505.193L1503.902,505.193z"/>
		</g>
	</g>
	<g>
		<g>
			<path fill="#39332C" d="M1596.035,507.599c-1.169,20.038-44.531,20.037-45.701,0c-0.187-3.198-5.188-3.22-5,0
				c1.563,26.779,54.138,26.779,55.701,0C1601.223,504.385,1596.222,504.396,1596.035,507.599L1596.035,507.599z"/>
		</g>
	</g>
	<g>
		<g>
			<path fill="#39332C" d="M1689.987,507.599c-1.169,20.038-44.531,20.037-45.7,0c-0.187-3.198-5.188-3.22-5,0
				c1.563,26.779,54.138,26.779,55.7,0C1695.174,504.385,1690.174,504.396,1689.987,507.599L1689.987,507.599z"/>
		</g>
	</g>
	<g>
		<g>
			<path fill="#39332C" d="M1554.971,568.37c-0.799,13.699-19.922,15.462-30.685,14.3c-5.243-0.566-13.681-1.961-15.528-7.951
				c-0.355-1.151-0.392-2.386-0.2-3.566c0.077-0.473,0.835-2.555,0.37-1.52c1.307-2.912-3-5.457-4.317-2.524
				c-5.428,12.094,7.597,18.943,17.654,20.315c13.929,1.899,36.637-0.749,37.706-19.053
				C1560.159,565.155,1555.158,565.166,1554.971,568.37L1554.971,568.37z"/>
		</g>
	</g>
	<g>
		<g>
			<path fill="#39332C" d="M1645.373,568.37c-0.799,13.699-19.922,15.462-30.685,14.3c-5.243-0.566-13.68-1.961-15.527-7.951
				c-0.355-1.151-0.392-2.386-0.2-3.566c0.077-0.473,0.835-2.555,0.37-1.52c1.307-2.912-3-5.457-4.317-2.524
				c-5.428,12.094,7.597,18.943,17.654,20.315c13.929,1.899,36.637-0.749,37.706-19.053
				C1650.56,565.155,1645.559,565.166,1645.373,568.37L1645.373,568.37z"/>
		</g>
	</g>
	<path fill="#726861" d="M1282.407,574.293c0,0-13.016-155.236,21.33-209.208c31.286-49.164,60.969-1.17,60.969-1.17
		s1.916,2.69,2.527,3.403c6.394,7.455,37.921,51.466,55.351,98.078c18.806,50.294,27.409,79.869,14.992,88.044
		c-2.663,1.753-16.968,15.742-32.421-10.086c-3.568-5.964-13.236-39.661-21.823-31.075c-6.095,6.095,9.03,56.564-4.745,66.554
		c-5.708,4.14-9.047,4.403-18.294,1.592c-10.016-3.045-16.758-33.255-21.665-37.071c-4.906-3.816-8.723,5.997-8.723,5.997
		s-6.542,43.613-27.803,43.613C1280.84,592.965,1282.407,574.293,1282.407,574.293z"/>
	<path fill="#726861" d="M1868.217,571.825c0,0,13.016-155.236-21.33-209.208c-31.286-49.164-60.969-1.17-60.969-1.17
		s-1.916,2.69-2.527,3.403c-6.394,7.455-37.921,51.466-55.351,98.078c-18.806,50.294-27.409,79.869-14.992,88.044
		c2.663,1.753,16.968,15.742,32.421-10.086c3.568-5.964,13.236-39.661,21.823-31.074c6.095,6.095-9.03,56.564,4.745,66.554
		c5.708,4.14,9.047,4.403,18.294,1.592c10.016-3.045,16.758-33.255,21.665-37.071c4.906-3.816,8.723,5.997,8.723,5.997
		s6.542,43.613,27.803,43.613C1869.785,590.497,1868.217,571.825,1868.217,571.825z"/>
</g>
</svg>
