<?xml version="1.0" encoding="utf-8"?>
<!-- Generator: Adobe Illustrator 18.1.1, SVG Export Plug-In . SVG Version: 6.00 Build 0)  -->
<svg version="1.1" id="Layer_1" xmlns="http://www.w3.org/2000/svg" xmlns:xlink="http://www.w3.org/1999/xlink" x="0px" y="0px"
	 viewBox="0 0 1372.089 1318.076" enable-background="new 0 0 1372.089 1318.076" xml:space="preserve">
<g>
	<g>
		<path fill="#979797" d="M1333.535,375.912c24.259-22.533,38.114-54.337,38.544-87.437c0.431-33.26-13.047-65.063-36.819-88.406
			L1170.575,38.997c-23.178-22.533-54.336-34.985-86.573-34.554c-32.181,0.216-62.963,13.477-85.494,36.656l-310.34,318.156
			L382.194,40.237C357.99,15.171,325.108,0.67,290.178,0.023c-34.769-0.648-68.462,12.399-93.528,36.656L37.248,189.719
			C13.261,212.684,0,244.489,0,277.749c0,33.098,13.692,64.848,37.679,87.813L371.847,683.34L76.007,986.348
			c-45.064,46.091-46.089,119.618-2.532,167.164l115.198,125.331c21.886,23.773,52.666,37.896,85.063,39.137
			c32.237,1.293,63.826-10.512,87.6-32.829l324.3-303.223l316.484,300.905c23.556,22.317,54.93,34.285,87.382,33.26
			c32.397-0.862,63.178-14.717,85.28-38.543l116.007-124.038c44.256-47.384,43.825-120.643-0.809-167.164l-288.075-300.474
			L1333.535,375.912z M1333.535,375.912"/>
	</g>
</g>
</svg>
