<?xml version="1.0" encoding="utf-8"?>
<!-- Generator: Adobe Illustrator 18.1.1, SVG Export Plug-In . SVG Version: 6.00 Build 0)  -->
<svg version="1.1" id="Layer_1" xmlns="http://www.w3.org/2000/svg" xmlns:xlink="http://www.w3.org/1999/xlink" x="0px" y="0px"
	 viewBox="0 0 1342 1491.5" enable-background="new 0 0 1342 1491.5" xml:space="preserve">
<path fill="#FCB033" stroke="#F39E22" stroke-miterlimit="10" d="M511.185,1335.339v58.583c0,0-75.421,45.437-62.735,58.122
	c12.685,12.685,30.649,0,30.649,0s32.086-29.522,32.086-13.839c0,0-5.228,49.83,7.227,49.858
	c17.529,0.039,17.375-24.949,18.298-34.636c0.923-9.687,5.689-18.913,10.763-13.839c5.074,5.074,21.219,24.448,31.368,27.677
	c10.148,3.229,13.224,7.842,21.065-2.153c4.42-5.634,1.89-14.3-4.459-21.68c-9.149-10.636-42.285-20.912-42.285-43.976
	c0-23.064,0-64.119,0-64.119H511.185z"/>
<path fill="#FCB033" stroke="#F39E22" stroke-miterlimit="10" d="M844.696,1335.339v58.583c0,0,75.421,45.437,62.735,58.122
	c-12.685,12.685-30.649,0-30.649,0s-32.086-29.522-32.086-13.839c0,0,5.228,49.83-7.227,49.858
	c-17.529,0.039-17.375-24.949-18.298-34.636c-0.923-9.687-5.689-18.913-10.763-13.839c-5.074,5.074-21.219,24.448-31.368,27.677
	s-13.224,7.842-21.065-2.153c-4.42-5.634-1.89-14.3,4.459-21.68c9.149-10.636,42.285-20.912,42.285-43.976
	c0-23.064,0-64.119,0-64.119H844.696z"/>
<path fill="#C8B093" d="M1267.235,727.67c0,359.724-279.886,651.953-597.828,651.953S82.649,1092.314,82.649,732.59
	c0-199.218,89.439-466.055,213.987-585.53C396.982,50.801,533.693,35.124,675.557,35.124c142.205,0,282.182,20.217,382.626,116.892
	C1182.314,271.487,1267.235,528.838,1267.235,727.67z"/>
<path fill="#C8B093" d="M90.03,647.714c0,0,3.627-329.652,9.841-450.216c3.896-75.578,8.611-155.608,38.133-186.975
	C151.092-3.384,168.867-3.94,242.562,65.876c81.802,77.496,118.09,104.558,118.09,104.558L183.517,647.714H90.03z"/>
<path fill="#C8B093" d="M1259.855,652.518c0,0-3.627-329.652-9.841-450.217c-3.896-75.578-8.611-155.608-38.133-186.975
	c-13.088-13.906-30.863-14.462-104.558,55.354c-81.802,77.496-118.09,104.558-118.09,104.558l177.134,477.279H1259.855z"/>
<circle fill="#726861" cx="418.455" cy="465.511" r="271.852"/>
<circle fill="#726861" cx="933.89" cy="465.511" r="271.852"/>
<circle fill="#FDF3E8" cx="418.17" cy="492.134" r="271.852"/>
<circle fill="#FDF3E8" cx="933.605" cy="492.134" r="271.852"/>
<path fill="#FCB033" stroke="#F39E22" stroke-miterlimit="10" d="M618.973,568.987l50.434,124.24l63.965-124.24
	c0,0-6.151-27.062-58.43-27.062S618.973,568.987,618.973,568.987z"/>
<g>
	<g>
		<path fill="#544A3F" d="M861.667,516.458c2.151,12.727,6.717,25.254,11.917,37.004c10.058,22.727,25.57,43.886,47.172,56.798
			c26.451,15.811,60.97,17.599,89.2,5.513c24.102-10.319,41.981-30.925,53.468-54.051c6.851-13.792,12.554-29.041,14.933-44.342
			c1.175-7.555-10.386-10.81-11.571-3.19c-5.076,32.643-23.05,68.18-51.845,85.593c-23.921,14.465-56.168,15.944-81.365,3.762
			c-21.638-10.461-36.922-29.7-47.232-50.964c-5.959-12.291-10.819-25.784-13.106-39.314
			C871.954,505.67,860.388,508.892,861.667,516.458L861.667,516.458z"/>
	</g>
</g>
<g>
	<g>
		<path fill="#544A3F" d="M278.636,516.458c2.151,12.727,6.717,25.254,11.918,37.004c10.058,22.727,25.57,43.886,47.171,56.798
			c26.451,15.811,60.97,17.599,89.2,5.513c24.102-10.319,41.981-30.925,53.468-54.051c6.851-13.792,12.554-29.041,14.933-44.342
			c1.175-7.555-10.387-10.81-11.571-3.19c-5.076,32.643-23.049,68.18-51.845,85.593c-23.921,14.465-56.168,15.944-81.365,3.762
			c-21.638-10.461-36.922-29.7-47.232-50.964c-5.959-12.291-10.819-25.784-13.106-39.314
			C288.923,505.67,277.357,508.892,278.636,516.458L278.636,516.458z"/>
	</g>
</g>
<ellipse fill="#726861" cx="666.673" cy="1141.558" rx="345.043" ry="222.341"/>
<ellipse fill="#FDF3E8" cx="666.673" cy="1102.81" rx="345.043" ry="222.341"/>
<g>
	<g>
		<path fill="#39332C" d="M514.374,1058.567c-0.733,14.005-13.325,26.698-26.496,31.707c-15.671,5.961-34.92,6.208-50.996,1.76
			c-11.018-3.049-21.172-9.307-27.071-19.319c-2.462-4.179-4.619-9.997-4.836-14.149c-0.168-3.201-5.169-3.221-5,0
			c0.871,16.642,14.452,30.29,29.159,36.137c16.723,6.648,37.427,6.92,54.662,2.152c11.942-3.304,22.908-10.116,29.547-20.774
			c3.198-5.133,5.71-11.396,6.03-17.514C519.543,1055.351,514.542,1055.36,514.374,1058.567L514.374,1058.567z"/>
	</g>
</g>
<g>
	<g>
		<path fill="#39332C" d="M722.261,1063.995c-0.733,14.005-13.325,26.698-26.496,31.707c-15.671,5.961-34.92,6.208-50.996,1.76
			c-11.018-3.048-21.172-9.307-27.071-19.319c-2.462-4.179-4.619-9.997-4.836-14.149c-0.167-3.201-5.169-3.221-5,0
			c0.871,16.642,14.452,30.29,29.159,36.137c16.723,6.648,37.427,6.92,54.662,2.152c11.942-3.304,22.908-10.116,29.547-20.774
			c3.198-5.133,5.71-11.396,6.03-17.514C727.43,1060.78,722.429,1060.789,722.261,1063.995L722.261,1063.995z"/>
	</g>
</g>
<g>
	<g>
		<path fill="#39332C" d="M934.252,1063.995c-0.733,14.005-13.325,26.698-26.496,31.707c-15.671,5.961-34.92,6.208-50.996,1.76
			c-11.018-3.048-21.172-9.307-27.071-19.319c-2.462-4.179-4.619-9.997-4.836-14.149c-0.167-3.201-5.169-3.221-5,0
			c0.871,16.642,14.452,30.29,29.159,36.137c16.723,6.648,37.427,6.92,54.662,2.152c11.942-3.304,22.908-10.116,29.547-20.774
			c3.198-5.133,5.71-11.396,6.03-17.514C939.42,1060.78,934.419,1060.789,934.252,1063.995L934.252,1063.995z"/>
	</g>
</g>
<g>
	<g>
		<path fill="#39332C" d="M629.606,1201.116c-0.958,18.317-19.583,31.137-36.7,34.61c-10.653,2.161-21.805,1.967-32.592,1.082
			c-8.351-0.685-16.877-2.027-24.7-5.154c-7.987-3.192-15.621-8.919-17.034-17.914c-0.418-2.658-0.273-5.425,0.309-8.046
			c0.209-0.943,0.484-1.863,0.787-2.778c0.188-0.569,0.471-1.156,0.19-0.538c1.323-2.907-2.985-5.451-4.317-2.524
			c-5.97,13.115,0.641,27.135,12.72,33.838c16.445,9.125,39.095,10.025,57.296,8.15c15.528-1.6,31.185-7.241,40.859-20.09
			c4.36-5.79,7.798-13.277,8.183-20.636C634.774,1197.9,629.773,1197.91,629.606,1201.116L629.606,1201.116z"/>
	</g>
</g>
<g>
	<g>
		<path fill="#39332C" d="M833.585,1201.116c-0.958,18.317-19.583,31.137-36.7,34.61c-10.653,2.161-21.805,1.967-32.592,1.082
			c-8.351-0.685-16.877-2.027-24.7-5.154c-7.987-3.192-15.621-8.919-17.034-17.914c-0.418-2.658-0.273-5.425,0.309-8.046
			c0.209-0.943,0.484-1.863,0.787-2.778c0.188-0.569,0.471-1.156,0.19-0.538c1.323-2.907-2.985-5.451-4.317-2.524
			c-5.97,13.115,0.641,27.135,12.72,33.838c16.445,9.125,39.095,10.025,57.296,8.15c15.528-1.6,31.185-7.241,40.859-20.09
			c4.36-5.79,7.798-13.277,8.183-20.636C838.754,1197.9,833.753,1197.91,833.585,1201.116L833.585,1201.116z"/>
	</g>
</g>
<path fill="#726861" d="M11.459,1214.482c0,0-29.369-350.271,48.128-472.051c70.593-110.932,137.569-2.641,137.569-2.641
	s4.322,6.071,5.701,7.678c14.426,16.821,85.565,116.127,124.891,221.301c42.434,113.483,61.845,180.215,33.828,198.661
	c-6.009,3.956-38.287,35.519-73.155-22.757c-8.052-13.458-29.866-89.49-49.24-70.116c-13.753,13.753,20.374,127.628-10.707,150.171
	c-12.879,9.34-20.414,9.936-41.278,3.592c-22.599-6.871-37.812-75.036-48.883-83.647c-11.071-8.611-19.682,13.531-19.682,13.531
	s-14.761,98.408-62.735,98.408S11.459,1214.482,11.459,1214.482z"/>
<path fill="#726861" d="M1333.265,1208.913c0,0,29.369-350.271-48.128-472.051c-70.593-110.932-137.569-2.641-137.569-2.641
	s-4.322,6.071-5.701,7.678c-14.426,16.821-85.565,116.127-124.891,221.301c-42.434,113.483-61.845,180.215-33.828,198.661
	c6.009,3.956,38.287,35.519,73.155-22.757c8.052-13.457,29.866-89.49,49.24-70.116c13.753,13.753-20.374,127.628,10.707,150.17
	c12.879,9.34,20.414,9.936,41.278,3.592c22.599-6.871,37.812-75.036,48.883-83.647s19.682,13.531,19.682,13.531
	s14.761,98.408,62.735,98.408S1333.265,1208.913,1333.265,1208.913z"/>
</svg>
